<?xml version="1.0" standalone="no"?>
<!DOCTYPE svg PUBLIC "-//W3C//DTD SVG 1.1//EN" "http://www.w3.org/Graphics/SVG/1.1/DTD/svg11.dtd">
<svg xmlns="http://www.w3.org/2000/svg">
<metadata>Copyright (C) 2018 by original authors @ fontello.com</metadata>
<defs>
<font id="fjord" horiz-adv-x="1000" >
<font-face font-family="fjord" font-weight="400" font-stretch="normal" units-per-em="1000" ascent="850" descent="-150" />
<missing-glyph horiz-adv-x="1000" />
<glyph glyph-name="cart" unicode="&#xe800;" d="M0 704q0 20 13 33t33 13l235 0q16 0 29-9t16-26l24-98 674 0 7 21q10 32 43 32 9 0 13-2 15-4 24-16t9-27q0-5-2-13l-118-393q-4-15-16-24t-27-9l-559 0q-16 0-28 10t-17 25l-108 438-199 0q-19 0-32 13t-14 32z m372-178l62-248 489 0 2 9 72 239-625 0z m42-484q0 38 28 65t65 27 65-27 27-65-27-65-65-27-65 27-28 65z m65 406l166 0 0-92-146 0z m245-92l1 92 162 0-24-92-139 0z m37-314q0 38 28 65t65 27 65-27 27-65-27-65-65-27-65 27-28 65z" horiz-adv-x="1120" />

<glyph glyph-name="logo" unicode="&#xe801;" d="M888 389h-82v-210h82c66 0 112 46 112 105 0 60-46 105-112 105z m0-168h-36v127h36c38 0 64-27 64-64 0-38-26-63-64-63z m-124 98c0 21-6 37-18 49-13 14-34 21-61 21h-96v-210h46v67h36l46-67h54l-52 75c27 10 45 31 45 65z m-82-32h-47v61h46c23 0 37-11 37-30 0-19-13-31-36-31z m-636-26h101v42h-101v44h114v42h-160v-210h46v82z m193-7c0-24-11-35-28-35-15 0-27 8-39 21l-29-32c14-17 36-32 69-32 23 0 42 7 55 20 12 12 19 31 19 56v137h-47l0-135z m267 137l-12-13c-16 10-36 15-58 15-65 0-112-49-112-109 0-28 10-53 27-72l-29-34h44l12 13c16-10 36-15 58-15 65 0 112 48 112 108 0 28-10 54-27 73l29 34h-44z m-134-107c0 37 26 67 64 67 11 0 21-2 30-7l-84-97c-7 11-10 24-10 37z m64-67c-11 0-21 3-29 7l83 97c7-11 10-23 10-37 0-37-26-67-64-67z m-51 569l83-83 32-32 115 115 115-115 32 32-147 147-115-115-115 115-147-147 32-32 115 115z m-230-172l83-83 32-32 115 115 83-83 32-32 115 115 83-83 32-32 32 32 83 83 115-115 33 32-148 147-115-115-115 115-115-115-115 115-115-115-115 115-147-147 32-32 115 115z m773-572c-36 0-36-30-71-30-36 0-36 30-72 30-36 0-36-30-71-30-36 0-36 30-72 30-35 0-35-30-71-30-36 0-36 30-71 30-36 0-36-30-72-30-35 0-35 30-71 30-36 0-36-30-71-30-36 0-36 30-72 30-36 0-36-30-71-30-36 0-36 30-72 30-35 0-35-30-71-30l0-42c36 0 36 31 72 31 35 0 35-31 71-31 36 0 36 31 71 31 36 0 36-31 72-31 35 0 35 31 71 31 36 0 36-31 71-31 36 0 36 31 72 31 36 0 36-31 71-31 36 0 36 31 72 31 35 0 35-31 71-31 36 0 36 31 71 31 36 0 36-31 72-31 35 0 35 31 71 31 36 0 36-32 72-31 0 4 0 36 0 42-36 1-36 30-72 30z m-142-120c-36 0-36-31-72-31-36 0-36 31-71 31-36 0-36-31-72-31-35 0-35 31-71 31-36 0-36-31-71-31-36 0-36 31-72 31-35 0-35-31-71-31-36 0-36 31-72 31-35 0-35-31-71-31l0-41c36 0 36 30 72 30 35 0 35-30 71-30 36 0 36 30 71 30 36 0 36-30 72-30 35 0 35 30 71 30 36 0 36-30 72-30 35 0 35 30 71 30 36 0 36-30 71-30 36 0 36 30 72 30 35 0 35-30 71-30l0 41c-36 0-36 31-71 31z" horiz-adv-x="1000" />

<glyph glyph-name="union" unicode="&#xe802;" d="M444 790c0 1 0 2 0 3 0 0 0 1 0 1 0 31-24 56-55 56-31 0-56-25-56-56 0-1 0-3 1-4-158-26-278-164-278-329v-333h-56v-56h778v56h-56v333c0 165-120 303-278 329z m-74-922c82 0 149 67 149 149h-297c0-82 67-149 148-149z" horiz-adv-x="778" />

<glyph glyph-name="heart" unicode="&#xe803;" d="M781 850c-95 0-183-46-239-121-57 75-144 121-240 121-166 0-302-140-302-311 0-81 30-157 84-216l427-441 31-32 30 32 419 433c59 58 92 138 92 224 0 171-135 311-302 311z" horiz-adv-x="1100" />

<glyph glyph-name="eye" unicode="&#xe804;" d="M797 52c165 0 299 134 299 299 0 165-134 299-299 299-165 0-299-134-299-299 0-165 134-299 299-299z m-797 299c0 0 299 499 797 499 498 0 797-499 797-499 0 0-297-501-797-501-500 0-797 501-797 501z m697 0c0 56 45 100 100 100 55 0 100-45 100-100 0-55-45-100-100-100-55 0-100 45-100 100z" horiz-adv-x="1600" />

<glyph glyph-name="message" unicode="&#xe805;" d="M583 850c-321 0-583-208-583-464 0-165 110-315 288-398l-90-109c-5-6-5-15-1-22 4-4 9-7 15-7 2 0 4 0 6 1l224 86c46-9 94-14 141-14 322 0 584 208 584 463 0 256-262 464-584 464z" horiz-adv-x="1200" />

<glyph glyph-name="share" unicode="&#xe806;" d="M843 198c-50 0-94-21-126-54l-371 182c1 8 2 17 2 26 0 8 0 17-2 25l370 179c32-33 77-54 127-54 96 0 174 78 174 174 0 96-78 174-174 174-96 0-174-78-174-174 0-9 1-17 2-25l-370-180c-32 34-77 55-127 55-96 0-174-78-174-174 0-97 78-175 174-175 50 0 95 21 126 55l371-182c-1-8-2-17-2-26 0-96 78-174 174-174 96 0 174 78 174 174 0 96-78 174-174 174z" horiz-adv-x="1063" />

<glyph glyph-name="vk" unicode="&#xe807;" d="M500-150c-275 0-500 225-500 500s225 500 500 500 500-225 500-500-225-500-500-500z m20 280c0 0 13 3 18 8 5 5 5 17 5 17s0 53 22 60c25 8 55-50 88-72 25-18 42-13 42-13l88 0c0 0 45 3 25 40-3 3-13 28-65 75-55 50-48 43 17 130 40 55 58 88 53 100-5 13-35 10-35 10l-98 0c0 0-7 0-12-2-5-3-8-10-8-10s-15-43-37-78c-45-75-63-77-68-75-17 10-12 43-12 68 0 72 10 102-23 110-10 2-17 5-45 5-35 0-65 0-82-8-10-5-20-17-15-17 7 0 22-5 30-15 10-15 10-45 10-45s5-85-13-95c-12-8-32 7-70 75-20 35-35 72-35 72s-2 8-7 10c-8 5-15 5-15 5l-95 0c0 0-15 0-20-7-5-5 0-18 0-18s72-172 157-257c78-80 163-75 163-75h37z" horiz-adv-x="1000" />

<glyph glyph-name="ok" unicode="&#xe808;" d="M0 339q0-35 24-60l246-239q24-25 60-25 36 0 60 25l505 495q25 24 25 59t-25 58q-25 25-60 25t-60-25l-445-435-185 181q-25 24-60 24t-61-24q-24-24-24-59z" horiz-adv-x="920.4" />

<glyph glyph-name="flag" unicode="&#xe809;" d="M0-150v1000h737v-1000l-369 300-368-300z" horiz-adv-x="750" />

<glyph glyph-name="instagram" unicode="&#xe80a;" d="M496 257c49 0 89 40 89 89 0 49-40 89-89 89-49 0-89-40-89-89 0-49 40-89 89-89z m112 308h-224c-32 0-61-10-79-28-18-18-29-47-29-79v-224c0-32 11-61 31-81 20-18 47-29 79-29h222c32 0 61 11 79 29 20 18 31 47 31 79v224c0 32-11 59-29 79-20 20-47 30-81 30z m-112-357c-77 0-138 63-138 138 0 77 63 138 138 138 75 0 140-61 140-138 0-77-63-138-140-138z m144 250c-18 0-32 14-32 32 0 19 14 33 32 33 19 0 33-14 33-33 0-18-14-32-33-32z m-140 392c-276 0-500-224-500-500 0-276 224-500 500-500 276 0 500 224 500 500 2 276-224 500-500 500z m266-618c0-47-16-87-44-116-29-28-70-42-114-42h-222c-44 0-85 14-114 42-30 29-44 69-44 116v224c0 93 63 158 158 158h224c47 0 85-16 114-44 28-29 42-68 42-114v-224z" horiz-adv-x="1000" />

<glyph glyph-name="facebook" unicode="&#xe80b;" d="M429 78h113v272h75l10 94h-85l0 47c0 24 2 37 37 37h47v94h-75c-90 0-122-45-122-122v-56h-56v-94h56v-272z m71-228c-276 0-500 224-500 500 0 276 224 500 500 500 276 0 500-224 500-500 0-276-224-500-500-500z" horiz-adv-x="1000" />

<glyph glyph-name="history" unicode="&#xe80c;" d="M937 256l63-32v129l-99 41-5-2c-3-1-81-42-81-159 0-55 17-93 29-120 14-31 18-41 4-53h-83c-7 0-12-5-12-12 0-8 5-13 12-13h91l3 3c35 26 21 54 8 85-13 27-27 60-27 110 0 86 46 124 63 134l72-31v-70l-34 16h-4c-9-1-23-6-31-22-8-20-2-47 22-83 47-69 47-131 47-132 0-94-76-170-170-170h-486c-94 0-171 76-171 170v88c46-90 95-97 98-97h1c6 0 11 5 12 12 2 6-3 12-11 13 0 0-55 10-100 135v49c0 30-16 87-74 87-58 0-74-49-74-75 0-7 5-12 12-12 8 0 13 5 13 12 0 5 1 50 49 50 48 0 50-59 50-62v-200c0-107 87-195 195-195h487c106 0 194 88 194 195 0 3 0 69-52 146-24 38-22 54-20 59 2 4 7 6 9 6z m-270-245c21 0 37 16 37 37 0 21-16 37-37 37-21 0-37-16-37-37 0-21 16-37 37-37z m0 49c7 0 12-5 12-12 0-8-5-13-12-13-8 0-13 5-13 13 0 7 5 12 13 12z m-161 25c-21 0-37-16-37-37 0-21 16-37 37-37 21 0 37 16 37 37 0 21-16 37-37 37z m0-50c-7 0-12 5-12 13 0 7 5 12 12 12 8 0 13-5 13-12 0-8-5-13-13-13z m-160 50c-21 0-37-16-37-37 0-21 16-37 37-37 21 0 37 16 37 37 0 21-16 37-37 37z m0-50c-8 0-13 5-13 13 0 7 5 12 13 12 7 0 12-5 12-12 0-8-5-13-12-13z m-79 173h252v-74c0-7 5-12 12-12 7 0 12 5 12 12v74h166l3 4c3 2 210 215 0 424l-3 4h-166v74c0 8-5 13-12 13-7 0-12-5-12-13v-74h-252l21-21c0 0 49-50 74-123 32-97 7-187-74-267l-21-21z m57 407h375c78-80 101-167 70-262-21-62-59-108-70-120h-374c143 164 43 326-1 382z m143-718c2-3 6-4 8-4 3 0 7 1 9 4l117 117c13-23 37-41 66-41 40 0 74 34 74 75 0 40-34 74-74 74-41 0-74-34-74-74 0-4 0-9 1-13-4 0-8-1-10-3l-7-8c2 8 3 15 3 24 0 40-33 74-74 74-41 0-74-34-74-74 0-4 0-9 1-13-3 0-7-1-9-3l-8-8c3 8 4 15 4 24 0 40-34 74-74 74-41 0-74-34-74-74 0-41 33-75 74-75 8 0 16 2 23 4l-63-63c-5-5-5-12 0-17 3-3 6-4 9-4 2 0 6 1 9 4l117 117c12-23 37-41 65-41 9 0 16 2 24 4l-63-63c-5-5-5-12 0-17z m200 200c27 0 49-22 49-49 0-28-22-50-49-50-27 0-50 22-50 50 0 27 23 49 50 49z m-371-49c0 27 23 49 50 49 27 0 49-22 49-49 0-28-22-50-49-50-27 0-50 22-50 50z m161 0c0 27 22 49 49 49 27 0 50-22 50-49 0-28-23-50-50-50-27 0-49 22-49 50z m-445 530c8 0 13 5 13 13 0 41 33 74 74 74 41 0 74-33 74-74 0-8 5-13 12-13 8 0 13 5 13 13 0 54-45 99-99 99-55 0-99-45-99-99 0-8 5-13 12-13z m642 161c8 0 13 5 13 12 0 41 33 74 74 74 39 0 71-32 74-70-15-17-25-40-25-65 0-8 5-13 13-13 7 0 12 5 12 13 0 40 33 74 74 74 41 0 74-34 74-74 0-8 5-13 12-13 8 0 13 5 13 13 0 54-45 98-99 98-19 0-37-5-52-14-10 43-49 76-96 76-55 0-99-44-99-99 0-7 5-12 12-12z" horiz-adv-x="1000" />

<glyph glyph-name="tourism" unicode="&#xe80d;" d="M212 533l-212-350v-333h756v345l-250 338h-294z m508-329h-286l-192 305h252l226-305z m-696-28l196 322 195-310v-314h-89l-108 321c-1 5-6 9-12 9-5 0-10-4-11-9l-94-321h-77v302z m276-302h-174l81 277 93-277z m432 0h-293v305h293v-195h-73c-8 0-13-5-13-12 0-7 5-12 13-12h73v-37h-159c-7 0-12-5-12-12 0-7 5-12 12-12h159v-25z m262 95c-6 4-13 3-17-3l-61-98c-4-6-3-13 4-17 2-1 4-1 7-1 4 0 8 2 10 6l61 98c3 4 2 13-4 15z m-43-9c3 0 6 1 9 3 5 5 5 13 0 17l-171 183c-5 5-12 5-17 0-5-4-5-12 0-17l171-183c2-2 5-3 8-3z m-518 305h213l-152 207h-200l139-207z m165 24h-153l-106 159h142l117-159z m-525 293c8 0 12 5 12 12 0 40 33 73 74 73 40 0 73-33 73-73 0-7 5-12 12-12 7 0 12 5 12 12 0 54-44 98-97 98-54 0-98-44-98-98 0-7 5-12 12-12z m732-220c7 0 12 5 12 12 0 41 33 74 73 74 41 0 73-33 73-74 0-7 5-12 13-12 7 0 12 5 12 12 0 54-44 98-98 98-53 0-97-44-97-98 0-7 5-12 12-12z m-317 378c7 0 12 5 12 12 0 41 33 74 73 74 39 0 71-32 73-70-12-14-20-33-23-52-5 0-8 0-13 0-54 0-98-44-98-98 0-7 5-12 12-12 8 0 13 5 13 12 0 40 33 73 73 73 40 0 73-33 73-73 0-7 5-12 12-12 7 0 12 5 12 12 0 40-25 76-61 90 3 38 35 69 74 69 40 0 73-33 73-73 0-8 5-13 12-13 7 0 12 5 12 13 0 53-44 97-97 97-19 0-37-5-52-15-9 43-48 76-95 76-53 0-97-44-97-98 0-7 5-12 12-12z" horiz-adv-x="1000" />

<glyph glyph-name="design" unicode="&#xe80e;" d="M798 488c0 55-45 100-100 100-55 0-99-45-99-100 0-7 5-12 12-12 8 0 12 5 12 12 0 42 34 75 75 75 41 0 75-33 75-75 0-1 0-1 0-1v-1-92c0-50-41-91-91-91h-566c-50 0-91 41-91 91v92c0 1 0 1 0 1v1c0 42 34 75 75 75 41 0 75-33 75-75 0-7 5-12 12-12 8 0 13 5 13 12 0 55-45 100-100 100-55 0-100-45-100-100 0-1 0-1 0-1v-1-92c0-64 52-116 116-116h271v-38h-161c-29 10-60-5-71-33l-104-281c-11-29 4-61 34-72 6-3 12-4 20-4 22 0 45 14 52 36l43 116c1 0 1 0 2 1l202 106 202-106c1-1 4-1 6-1l44-116c9-22 30-36 52-36 7 0 13 1 20 4 29 11 44 43 34 72l-104 281c-11 28-43 43-72 33-1 0-1 0-2 0h-172v38h270c64 0 116 52 116 116v92c0 1 0 1 0 1 0 0 0 0 0 1z m-394-350l-145 76h290l-145-76z m-271-243c-6-16-23-25-39-19-17 6-25 24-19 40l103 281c5 12 17 20 29 20 4 0 8 0 11-3 16-6 25-24 19-40l-104-279z m79 142l47 130c3 5 3 11 4 17l114-60-165-87z m218 87l116 61c0-6 1-12 4-18l49-131-169 88z m202 73l104-281c6-16-3-34-19-40-16-6-34 3-40 19l-103 280c-7 17 2 34 18 40 4 2 8 3 12 3 11 0 23-9 28-21z m-532 407c7 0 12 5 12 13v25c0 101 83 183 184 183h207c101 0 183-82 183-183v-25c0-8 5-13 12-13 8 0 13 5 13 13v25c0 115-94 208-208 208h-207c-115 0-209-93-209-208v-25c0-8 5-13 13-13z" horiz-adv-x="806" />

<glyph glyph-name="culture" unicode="&#xe80f;" d="M775 588c-55 0-100-45-100-100 0-8 5-13 13-13 7 0 12 5 12 13 0 41 34 75 75 75 41 0 75-34 75-75 0-8 5-13 13-13 7 0 12 5 12 13 0 55-45 100-100 100z m-762-13c7 0 12 5 12 13 0 41 34 75 75 75 41 0 75-34 75-75 0-8 5-13 13-13 7 0 12 5 12 13 0 55-45 100-100 100-55 0-100-45-100-100 0-8 5-13 13-13z m650 163c7 0 12 5 12 12 0 41 34 75 75 75 40 0 73-32 75-71-15-18-25-40-25-66 0-8 5-13 13-13 7 0 12 5 12 13 0 41 34 75 75 75 41 0 75-34 75-75 0-8 5-13 13-13 7 0 12 5 12 13 0 55-45 100-100 100-19 0-37-5-52-15-10 43-50 77-98 77-55 0-100-45-100-100 0-7 5-12 13-12z m325-863h-13v238c0 1 0 2-1 5 0 0 0 1-1 1 0 0 0 1-2 1l-150 200c-2 4-6 5-10 5h-275v13c0 7-5 12-12 12h-38v150c0 1 0 1 0 3 0 1 0 1 0 2l-75 213c-1 5-6 8-11 8h-100c-1 0-2 0-5-1 0 0-1 0-1-1-1 0-1-1-3-1l-1-2c-1-1-1-1-1-2v-1l-75-213c0-1 0-1 0-2 0-2 0-2 0-3v-150h-38c-7 0-12-5-12-12v-50c0-8 5-13 12-13h38v-65l-93-92c-2-3-3-5-3-9v-234h-105c-8 0-13-5-13-13 0-7 5-12 13-12h212 38 75 37 613c7 0 12 5 12 12 0 8-5 13-12 13z m-600 304l75-75v-229h-75v304z m100-79h462v-225h-462v225z m318 200l132-175h-462l-88 89v61h25 50v-50c0-7 5-12 12-12 8 0 13 5 13 12v50h37c8 0 13 5 13 13v12h268z m-293 0h-88v25h50 38v-25z m-100 50h-25v138h75v-138h-50z m-113 325l58-162h-115l57 162z m158-162h-74l-66 187h73l67-187z m-220-25h125v-138h-125v138z m-50-163h37 150 25v-25h-25-150-37v25z m-47-221l72 71v-300h-72v229z m134-229v138c0 13 11 25 25 25 14 0 25-12 25-25v-138h-50z m75 0v138c0 27-22 50-50 50-27 0-50-23-50-50v-138h-12v400h125v-400h-13z m275 200c-27 0-50-22-50-50v-50c0-8 5-13 13-13h75c7 0 12 5 12 13v50c0 28-22 50-50 50z m25-88h-50v38c0 14 11 25 25 25 14 0 25-11 25-25v-38z m-350 238c-27 0-50-22-50-50v-25c0-7 5-12 13-12h75c7 0 12 5 12 12v25c0 28-22 50-50 50z m25-62h-50v12c0 14 11 25 25 25 14 0 25-11 25-25v-12z m475-88c-27 0-50-22-50-50v-50c0-8 5-13 13-13h75c7 0 12 5 12 13v50c0 28-22 50-50 50z m25-88h-50v38c0 14 11 25 25 25 14 0 25-11 25-25v-38z" horiz-adv-x="1000" />

<glyph glyph-name="gastronomy" unicode="&#xe810;" d="M751 706c8 0 13 5 13 13 0 43 36 78 79 78 41 0 74-30 79-69-45-12-79-53-79-101 0-8 5-13 13-13 8 0 13 5 13 13 0 43 36 79 79 79 43 0 79-36 79-79 0-8 5-13 13-13 8 0 13 5 13 13 0 57-47 105-105 105 0 0 0 0-1 0-7 51-51 92-104 92-58 0-105-48-105-105 0-8 5-13 13-13z m-618 26c8 0 13 5 13 13 0 43 36 79 79 79 44 0 79-36 79-79 0-8 5-13 13-13 8 0 13 5 13 13 0 58-47 105-105 105-57 0-105-47-105-105 0-8 5-13 13-13z m776-723h-513c-8 0-13-5-13-13 0-8 5-13 13-13h513c8 0 13 5 13 13 0 8-5 13-13 13z m-684 223h-144c-8 0-13-5-13-13 0-8 5-13 13-13h144c8 0 13 5 13 13 0 8-5 13-13 13z m92 0h-39c-8 0-13-5-13-13 0-8 5-13 13-13h39c8 0 13 5 13 13 0 8-5 13-13 13z m727 33c-16 20-46 20-68 20h-23c15 24 21 51 21 79 0 0 0 0 0 1 0 83-64 150-144 157 0 3 0 9 0 13 0 86-71 157-158 157-60 0-116-35-142-88-27 45-77 75-134 75-87 0-158-71-158-157-86 0-157-71-157-158 0-28 8-55 21-79h-23c-23 0-52 0-68-20-10-13-14-33-8-60l40-200v-1c14-41 59-74 102-74h765c43 0 89 32 102 74v1l40 200c6 27 4 46-8 60z m-516 230c57 0 107-38 124-90-7 6-17 11-32 11-37 0-48-21-61-44-4-8-9-17-16-28-6-9-13-14-21-13-12 1-26 18-34 49-5 21-14 35-29 42-14 8-31 6-47 2 21 42 66 71 116 71z m-107-210c0 1-1 4-2 5-15 23-23 48-23 74 0 10 1 21 4 30 19 7 36 12 47 5 7-4 12-11 16-25 9-36 32-63 55-68 3 0 4 0 7 0 10 0 26 4 41 25 8 11 13 21 17 29 12 22 17 30 38 30 12 0 16-4 24-14 3-6 9-11 15-16-1-24-8-47-21-68-1-3-1-6-1-7h-217z m-30 0h-16c3 5 5 11 8 16 3-5 5-11 8-16z m281 16c3-5 5-11 8-16h-16c3 5 5 11 8 16z m38-16c0 1-1 4-2 5-11 16-19 34-21 54 6-2 13-5 22-6 71-15 101 1 142 27 5 3 9 7 13 9 30 21 37 25 53 17 17-9 27-25 31-30 0-22-6-44-18-64-3-4-3-8-2-11h-218v-1z m230 122c-4 3-8 5-13 8-30 15-49 3-79-18-4-3-8-6-13-9-35-24-59-37-121-25-12 2-21 5-29 9 6 68 62 122 132 122 57 1 106-36 123-87z m-138 113c-59-5-108-42-130-94-21 48-66 84-118 92 0 1 0 1 0 2 0 3 0 4 0 7 34 9 55 26 66 55 10 30 40 55 74 45 36-12 82-24 91-27 12-19 19-42 19-67 0-4 0-8-2-13z m-256 51c16 56 68 95 126 95 32 0 61-10 83-30-17 4-36 10-53 16-22 8-46 5-67-8-19-12-34-30-42-53-4-13-14-29-43-38 0 7-3 12-4 18z m-21-22c-7-1-15-1-24-1-37 0-42 5-63 29-5 5-12 12-18 19-28 28-70 33-99 33 21 16 48 24 76 24 62 0 115-45 128-104z m-260-27c0 30 10 56 26 78h1c2 0 73 12 107-22 8-8 13-13 18-20 24-25 34-36 83-36 9 0 18 0 26 1v-1c-64 0-119-40-144-95-21 49-66 84-119 92 2 1 2 1 2 3z m-27-27c58 0 108-38 125-90-8-7-14-15-19-23-8-10-16-22-33-33-27-17-44-6-88 28-6 4-9 8-15 12-37 27-68 30-88 29 19 44 65 77 118 77z m-109-205c-14 23-22 48-22 74 0 9 1 17 3 25 8 2 42 8 81-23 5-3 11-7 15-11 43-33 75-58 118-29 21 13 31 27 39 39 2 3 4 5 6 7 0-3 0-7 0-9 0-25-8-50-21-73-2-2-2-5-2-6h-215c0 2 0 5-2 6z m898-80l-40-198c-11-35-49-56-77-56h-765c-27 0-66 21-77 56l-40 199c-4 19-2 32 3 39 8 10 30 10 48 10h897c18 0 39 0 48-10 6-8 7-21 3-40z m-141-296c-6 3-14-1-17-8-9-27-38-28-77-28h-529c-39 0-68 2-77 28-3 7-11 11-17 8-7-2-11-10-8-17 16-47 66-47 102-47h529c36 0 86 0 102 47 3 8-1 16-8 17z m-600 477c1-1 4-1 5-1 5 0 9 3 12 8l13 26c3 7 0 15-5 17-7 3-15 0-17-5l-13-26c-4-7-2-15 5-19z m418 182c-7 2-15 0-17-5l-14-27c-2-6 0-14 6-17 1-1 4-1 5-1 5 0 9 2 12 8l13 26c4 4 1 12-5 16z m-176-157c7 0 13 6 13 14v26c0 8-6 13-13 13-8 0-14-5-14-13v-26c0-8 6-14 14-14z m233 21c-3 7-11 8-18 4-6-4-8-11-4-18l26-39c3-4 7-6 11-6 3 0 5 2 8 3 6 4 8 12 4 18l-27 38z m-391 71c3 0 5 2 8 3 6 4 8 12 4 18l-27 40c-4 6-11 8-18 4-7-4-8-12-4-19l26-39c3-4 7-7 11-7z" horiz-adv-x="1056" />

<glyph glyph-name="authors" unicode="&#xe811;" d="M184 155c-8 0-13 5-13 13v204c0 171 122 314 289 343 6 1 14-4 15-11 2-6-3-14-10-15-155-25-268-159-268-317v-204c0-6-5-13-13-13z m670 0c-8 0-13 5-13 13v204c0 148-101 277-246 313-6 1-12 9-9 16 1 6 9 11 16 9 156-37 265-176 265-338v-204c0-6-5-13-13-13z m-79 66c-8 0-13 5-13 13v142c0 97-66 181-160 205-7 1-12 9-10 16 2 6 10 12 16 9 107-26 182-121 182-230v-141c-2-8-7-14-15-14z m-499 0c-8 0-13 5-13 13v142c0 109 74 205 181 230 7 1 14-3 16-9 1-7-3-15-9-16-96-24-162-108-162-205v-141c0-8-5-14-13-14z m585-184h-671c-39 0-72 33-72 72 0 39 33 72 72 72h671c39 0 72-33 72-72 0-39-33-72-72-72z m-671 118c-25 0-46-21-46-46 0-25 21-46 46-46h671c25 0 46 21 46 46 0 25-21 46-46 46h-671z m337-305l-80 60v140c0 8 5 13 13 13 8 0 13-5 13-13v-126l54-41 54 41v126c0 8 5 13 13 13 8 0 13-5 13-13v-140l-80-60z m67 305c-8 0-13 5-13 13v523l-54 40-54-40v-523c0-8-5-13-13-13-8 0-13 5-13 13v536l80 60 80-60v-536c0-6-5-13-13-13z m260 171c-4 0-8 3-10 6-4 6-3 15 3 19 2 0 177 116 188 263 11 119-14 172-39 201-1-7-1-16-3-24-4-47-11-121-54-161-65-66-118-92-120-94-7-2-15 0-18 5-2 7 0 15 6 18 0 0 51 26 114 88 36 35 42 102 46 146 4 34 5 49 18 55 4 1 12 2 20-6 30-30 69-86 57-231-13-160-193-279-201-284-2 0-4-1-7-1z m26 131c-5 0-10 4-11 10-3 6 1 14 7 17 73 23 98 72 98 72 4 7 11 9 17 5 6-2 9-10 5-17-1-3-30-58-113-85 0-2-1-2-3-2z m-696-118c4 0 8 3 10 7 4 6 3 14-4 18-1 0-150 103-161 250-11 119 14 172 38 201 1-7 1-16 2-24 4-47 12-121 54-161 66-66 105-79 108-81 7-2 14 0 17 6 3 6 0 14-5 17 0 0-38 13-101 75-36 36-42 103-46 147-3 35-4 51-19 55-4 1-10 3-20-5-28-30-67-87-55-232 13-160 167-265 175-270 1-2 4-3 7-3z m0 118c5 0 10 4 11 10 3 6-1 14-7 17-73 23-98 72-98 72-4 7-12 9-17 5-6-2-9-10-5-17 1-3 30-58 113-85 0-2 1-2 3-2z m341 132c-22 0-39 17-39 39 0 23 17 40 39 40 23 0 40-17 40-40 0-22-17-39-40-39z m0 52c-7 0-13-5-13-13 0-8 6-13 13-13 8 0 14 5 14 13 0 8-6 13-14 13z m0-171c-22 0-39 18-39 40 0 22 17 39 39 39 23 0 40-17 40-39 0-22-17-40-40-40z m0 53c-7 0-13-5-13-13 0-8 6-13 13-13 8 0 14 5 14 13 0 8-6 13-14 13z" horiz-adv-x="1083" />

<glyph glyph-name="search" unicode="&#xe812;" d="M406 31c-112 0-212 44-287 119s-119 175-119 294 44 212 119 287 175 119 287 119 213-44 288-119 119-175 119-287-44-213-119-288-169-125-288-125z m0 694c-75 0-143-31-200-81s-81-125-81-200 31-150 81-200 125-81 200-81 150 31 200 81 82 125 82 200-32 150-82 200-118 81-200 81z m207-587l50 50 50 50 143-144 144-144-50-50-44-50-143 144-150 144z" horiz-adv-x="1000" />

<glyph glyph-name="filter" unicode="&#xe813;" d="M375 850c-69 0-125-56-125-125s56-125 125-125 125 56 125 125-56 125-125 125z m375-375c-69 0-125-56-125-125s56-125 125-125 125 56 125 125-56 125-125 125z m-687 313c-38 0-63-25-63-63l0 0c0-37 25-62 63-62h62c38 0 63 25 63 62l0 0c0 38-25 63-63 63h-62z m562 0c-37 0-62-25-62-63l0 0c0-37 25-62 62-62h438c37 0 62 25 62 62l0 0c0 38-25 63-62 63h-438z m-250-688c-69 0-125-56-125-125s56-125 125-125 125 56 125 125-56 125-125 125z m-312-62c-38 0-63-25-63-63l0 0c0-38 25-63 63-63h62c38 0 63 25 63 63l0 0c0 38-25 63-63 63h-62z m562 0c-37 0-62-25-62-63l0 0c0-38 25-63 62-63h438c37 0 62 25 62 63l0 0c0 38-25 63-62 63h-438z m-562 375c-38 0-63-25-63-63l0 0c0-37 25-62 63-62h437c38 0 63 25 63 62l0 0c0 38-25 63-63 63h-437z m937 0c-37 0-62-25-62-63l0 0c0-37 25-62 62-62h63c37 0 62 25 62 62l0 0c0 38-25 63-62 63h-63z" horiz-adv-x="1125" />

<glyph glyph-name="logo-text" unicode="&#xe814;" d="M4083 833c306 0 517-211 517-483 0-272-211-483-517-483h-377v966h377z m0-772c173 0 295 117 295 289 0 172-117 289-295 289h-166v-583h166z m-566 450c0-155-84-255-206-300l239-344h-250l-211 311h-167v-311h-211v966h445c122 0 216-33 283-100 50-50 78-127 78-222z m-378-150c105 0 161 56 161 139 0 89-61 139-167 139h-211v-278h217z m-2928-122v-372h-211v966h739v-194h-528v-206h461v-194h-461z m889-28l0 622h217v-633c0-117-34-200-89-256-61-61-150-94-256-94-150 0-250 67-316 144l133 150c55-61 111-94 178-94 83 0 133 50 133 161z m1228 628h205l-139-156c78-89 123-205 123-333 0-272-217-500-517-500-100 0-189 22-267 67l-55-61h-206l134 155c-78 89-123 206-123 333 0 273 217 500 517 500 100 0 189-22 267-66l61 61z m-617-489c0-61 17-122 45-172l383 444c-39 22-83 34-139 34-167 0-289-134-289-306z m295-306c172 0 294 139 294 306 0 61-17 122-44 172l-384-444c39-22 84-34 134-34z" horiz-adv-x="4611" />

<glyph glyph-name="zen" unicode="&#xe815;" d="M500 850c-276 0-500-224-500-500 0-276 224-500 500-500 276 0 500 224 500 500 0 276-224 500-500 500z m175-804l-360 123v112l360-123v-112z m-353 244l222 189 121-41-218-189-125 41z m353 155l-360 123v113l360-123v-113z" horiz-adv-x="1000" />

<glyph glyph-name="clock_" unicode="&#xe816;" d="M500-150c-275 0-500 225-500 500 0 275 225 500 500 500 275 0 500-225 500-500 0-275-225-500-500-500z m0 900c-220 0-400-180-400-400s180-400 400-400 400 180 400 400-180 400-400 400z m225-425c0 30-20 50-50 50h-125v250c0 30-20 50-50 50s-50-20-50-50v-300c0-30 20-50 50-50h175c30 0 50 20 50 50z" horiz-adv-x="1000" />

<glyph glyph-name="user" unicode="&#xe817;" d="M458 350c138 0 250 113 250 250s-112 250-250 250-250-112-250-250 113-250 250-250z m0 417c92 0 167-75 167-167s-75-167-167-167c-91 0-166 75-166 167s75 167 166 167z m-375-917h-83c0 254 204 458 458 458 255 0 459-204 459-458h-84c0 208-166 375-375 375-208 0-375-167-375-375z" horiz-adv-x="917" />

<glyph glyph-name="pencil" unicode="&#xe818;" d="M615 665l200-200-615-615h-200v200l615 615z m70 70l115 115 200-200-115-115-200 200z" horiz-adv-x="1000" />

<glyph glyph-name="photo" unicode="&#xe819;" d="M1000 625c31 0 56-12 81-31 19-19 32-50 32-81v-557c0-31-13-56-32-81-25-13-50-25-81-25h-887c-32 0-57 12-82 31-18 25-31 50-31 81v557c0 62 50 112 113 112h131l94 194c6 6 12 19 18 25 13 0 25 0 32 0h331c12 0 19 0 31-6 6-6 19-13 19-25l94-194h137z m-575 113l-100-188c0-12-12-19-19-25-6-6-18-6-31-6h-162v-557h887v557h-169c-12 0-18 0-31 6-6 6-19 13-19 25l-93 188h-263z m131-663c-56 0-112 25-156 63-44 43-62 100-62 156s25 112 62 156c44 44 100 63 156 63s113-25 157-63c43-44 62-100 62-156s-25-113-62-156c-44-44-100-63-157-63z m0 106c32 0 57 13 82 32 18 18 31 50 31 81 0 31-13 56-31 81-25 19-50 31-82 31-31 0-56-12-81-31-19-25-31-50-31-81 0-31 12-56 31-81 25-19 50-32 81-32z" horiz-adv-x="1113" />

<glyph glyph-name="star" unicode="&#xe81a;" d="M359 529c0 0-202-19-334-37-6 0-19-13-25-26 0-6 0-18 13-31 100-88 245-226 245-226 0 0-38-195-69-328 0-12 0-25 12-31 13-6 25-6 32 0 113 63 289 164 289 164s176-101 289-164c13-6 26-6 32 0 12 6 12 19 12 31-25 133-69 328-69 328s157 138 252 226c6 6 12 19 6 31s-13 19-25 19c-132 19-327 44-327 44s-82 183-138 302c-7 13-13 19-32 19s-19-6-25-19c-57-119-138-302-138-302z" horiz-adv-x="1050" />

<glyph glyph-name="google" unicode="&#xe81b;" d="M500 850c275 0 500-225 500-500s-225-500-500-500-500 225-500 500 225 500 500 500z m245-452c-80 0-160 0-240 0 0-33 0-65 0-98 48 0 93 0 140 0-5-30-25-60-50-77-17-10-35-18-55-23-20-2-40-5-60 0-20 5-40 13-57 25-28 18-48 45-58 78-10 32-10 65 0 97 8 23 20 43 38 60 20 20 47 35 75 43 25 5 50 5 75-3 20-5 40-17 55-32 15 15 32 30 47 45 8 7 18 15 25 25-25 22-52 40-82 50-55 20-118 20-173 2-62-20-115-67-145-125-10-20-17-40-22-62-13-55-3-113 22-163 18-32 40-60 70-82 28-23 60-38 93-45 42-10 87-10 130-3 37 8 75 28 105 53 30 27 52 65 65 105 10 40 10 85 2 130z" horiz-adv-x="1000" />
</font>
</defs>
</svg>
