<svg width="52" height="48" viewBox="0 0 52 48" fill="none" xmlns="http://www.w3.org/2000/svg">
<path d="M8.81259 33.362C8.43402 33.362 8.18164 33.1096 8.18164 32.731V22.9513C8.18164 14.7489 14.0495 7.87154 22.0626 6.48344C22.378 6.42035 22.7566 6.67273 22.8197 6.9882C22.8828 7.30368 22.6304 7.68225 22.315 7.74535C14.8697 8.94415 9.44354 15.3799 9.44354 22.9513V32.731C9.44354 33.0465 9.19116 33.362 8.81259 33.362Z" fill="#9E9E9E"/>
<path d="M40.9905 33.362C40.612 33.362 40.3596 33.1096 40.3596 32.731V22.9513C40.3596 15.8215 35.5013 9.63818 28.5608 7.93461C28.2453 7.87152 27.9929 7.49295 28.1191 7.17747C28.1822 6.862 28.5608 6.60962 28.8763 6.73581C36.3846 8.50247 41.6215 15.1906 41.6215 22.9513V32.731C41.6215 33.0465 41.3691 33.362 40.9905 33.362Z" fill="#9E9E9E"/>
<path d="M37.2077 30.2071C36.8291 30.2071 36.5768 29.9548 36.5768 29.5762V22.7619C36.5768 18.0929 33.422 14.0548 28.8791 12.9191C28.5637 12.856 28.3113 12.4774 28.4375 12.1619C28.5006 11.8464 28.8791 11.5941 29.1946 11.7203C34.3053 12.9822 37.9018 17.525 37.9018 22.7619V29.5131C37.8387 29.8917 37.5863 30.2071 37.2077 30.2071Z" fill="#9E9E9E"/>
<path d="M13.2306 30.2073C12.852 30.2073 12.5996 29.9549 12.5996 29.5763V22.7621C12.5996 17.5252 16.196 12.9192 21.3067 11.7204C21.6222 11.6573 22.0008 11.8466 22.0639 12.1621C22.127 12.4776 21.9377 12.8561 21.6222 12.9192C17.0163 14.0549 13.8615 18.093 13.8615 22.7621V29.5132C13.8615 29.8918 13.6091 30.2073 13.2306 30.2073Z" fill="#9E9E9E"/>
<path d="M41.307 39.0404H9.12844C7.23558 39.0404 5.6582 37.463 5.6582 35.5702C5.6582 33.6773 7.23558 32.1 9.12844 32.1H41.307C43.1998 32.1 44.7772 33.6773 44.7772 35.5702C44.7772 37.463 43.1998 39.0404 41.307 39.0404ZM9.12844 33.3619C7.92963 33.3619 6.92011 34.3714 6.92011 35.5702C6.92011 36.769 7.92963 37.7785 9.12844 37.7785H41.307C42.5058 37.7785 43.5153 36.769 43.5153 35.5702C43.5153 34.3714 42.5058 33.3619 41.307 33.3619H9.12844Z" fill="#9E9E9E"/>
<path d="M25.2804 47.9999L21.4316 45.0976V38.4095C21.4316 38.0309 21.684 37.7785 22.0626 37.7785C22.4412 37.7785 22.6935 38.0309 22.6935 38.4095V44.4666L25.2804 46.4226L27.8673 44.4666V38.4095C27.8673 38.0309 28.1197 37.7785 28.4983 37.7785C28.8769 37.7785 29.1292 38.0309 29.1292 38.4095V45.0976L25.2804 47.9999Z" fill="#9E9E9E"/>
<path d="M28.4983 33.362C28.1197 33.362 27.8673 33.1096 27.8673 32.731V7.61917L25.2804 5.72632L22.6935 7.61917V32.731C22.6935 33.1096 22.4412 33.362 22.0626 33.362C21.684 33.362 21.4316 33.1096 21.4316 32.731V6.98822L25.2804 4.14894L29.1292 6.98822V32.731C29.1292 33.0465 28.8769 33.362 28.4983 33.362Z" fill="#9E9E9E"/>
<path d="M40.9932 25.1596C40.8039 25.1596 40.6147 25.0334 40.4885 24.8441C40.2992 24.5918 40.3623 24.1501 40.6778 23.9608C40.7409 23.9608 49.1325 18.4084 49.7004 11.3418C50.2051 5.60013 49.0063 3.07632 47.8075 1.68823C47.7444 2.00371 47.7444 2.44537 47.6813 2.82394C47.492 5.09537 47.1135 8.6287 45.0944 10.5846C41.9397 13.7394 39.4159 15.0013 39.2897 15.0644C38.9742 15.1906 38.5956 15.0644 38.4694 14.812C38.3432 14.4965 38.4694 14.118 38.7218 13.9918C38.7218 13.9918 41.1825 12.7299 44.2111 9.76441C45.9147 8.06084 46.2301 4.84299 46.4194 2.76085C46.6087 1.12037 46.6718 0.363232 47.3027 0.110852C47.492 0.0477564 47.8706 -0.0153387 48.2492 0.363232C49.7004 1.81442 51.5301 4.52751 50.9623 11.468C50.3313 19.1656 41.6873 24.8441 41.3087 25.0965C41.2456 25.0965 41.1194 25.1596 40.9932 25.1596Z" fill="#9E9E9E"/>
<path d="M42.2539 18.8499C42.0015 18.8499 41.7491 18.6607 41.686 18.4083C41.5598 18.0928 41.7491 17.7142 42.0646 17.588C45.5348 16.4523 46.7336 14.1178 46.7336 14.1178C46.9229 13.8023 47.3015 13.6761 47.5539 13.8654C47.8693 13.9916 47.9955 14.3702 47.8062 14.6857C47.7431 14.8119 46.3551 17.4618 42.3801 18.7868C42.3801 18.8499 42.317 18.8499 42.2539 18.8499Z" fill="#9E9E9E"/>
<path d="M8.81329 24.5286C9.00258 24.5286 9.19186 24.4024 9.31805 24.2131C9.50734 23.8977 9.44424 23.5191 9.12877 23.3298C9.06567 23.3298 1.93592 18.4084 1.36807 11.3417C0.863305 5.60007 2.06211 3.07626 3.19783 1.68817C3.26092 2.00364 3.26092 2.44531 3.32402 2.82388C3.5133 5.09531 3.89187 8.62863 5.91092 10.5846C9.06567 13.7393 10.9585 14.3703 11.0847 14.4334C11.4002 14.5596 11.7788 14.4334 11.905 14.181C12.0311 13.8655 11.905 13.487 11.6526 13.3608C11.6526 13.3608 9.82282 12.7298 6.79425 9.76435C5.09068 7.99768 4.7752 4.77983 4.58592 2.69769C4.45973 0.994123 4.39663 0.236981 3.70259 0.0476955C3.5133 -0.0153997 3.19783 -0.0784948 2.75616 0.300076C1.36807 1.75126 -0.461693 4.46436 0.106164 11.4048C0.737115 19.1024 8.11925 24.15 8.49782 24.4024C8.56091 24.4655 8.6871 24.5286 8.81329 24.5286Z" fill="#9E9E9E"/>
<path d="M8.81318 18.8499C9.06556 18.8499 9.31794 18.6607 9.38104 18.4083C9.50723 18.0928 9.31794 17.7142 9.00247 17.588C5.53224 16.4523 4.33343 14.1178 4.33343 14.1178C4.14414 13.8023 3.76557 13.6761 3.51319 13.8654C3.19772 13.9916 3.07152 14.3702 3.26081 14.6857C3.32391 14.8119 4.712 17.4618 8.68699 18.7868C8.68699 18.8499 8.75009 18.8499 8.81318 18.8499Z" fill="#9E9E9E"/>
<path d="M25.219 12.5405C24.1464 12.5405 23.3262 11.7202 23.3262 10.6476C23.3262 9.575 24.1464 8.75476 25.219 8.75476C26.2916 8.75476 27.1119 9.575 27.1119 10.6476C27.1119 11.7202 26.2916 12.5405 25.219 12.5405ZM25.219 10.0167C24.8405 10.0167 24.5881 10.269 24.5881 10.6476C24.5881 11.0262 24.8405 11.2786 25.219 11.2786C25.5976 11.2786 25.85 11.0262 25.85 10.6476C25.85 10.269 25.5976 10.0167 25.219 10.0167Z" fill="#9E9E9E"/>
<path d="M25.219 18.219C24.1464 18.219 23.3262 17.3988 23.3262 16.3262C23.3262 15.2536 24.1464 14.4333 25.219 14.4333C26.2916 14.4333 27.1119 15.2536 27.1119 16.3262C27.1119 17.3988 26.2916 18.219 25.219 18.219ZM25.219 15.6952C24.8405 15.6952 24.5881 15.9476 24.5881 16.3262C24.5881 16.7048 24.8405 16.9571 25.219 16.9571C25.5976 16.9571 25.85 16.7048 25.85 16.3262C25.85 15.9476 25.5976 15.6952 25.219 15.6952Z" fill="#9E9E9E"/>
</svg>
